<svg width="24" height="24" viewBox="0 0 24 24" fill="none" xmlns="http://www.w3.org/2000/svg">
<g clip-path="url(#clip0_1577_19148)">
<path d="M12 0.75C7.08745 0.75 2.92495 3.9 1.38745 8.25H22.6124C21.0749 3.9 16.9124 0.75 12 0.75Z" fill="#ED4C5C"/>
<path d="M12 23.25C16.9124 23.25 21.0749 20.1375 22.6124 15.75H1.38745C2.92495 20.1375 7.08745 23.25 12 23.25Z" fill="#3E4347"/>
<path d="M1.3875 8.25C0.975 9.4125 0.75 10.6875 0.75 12C0.75 13.3125 0.975 14.5875 1.3875 15.75H22.6125C23.025 14.5875 23.25 13.3125 23.25 12C23.25 10.6875 23.025 9.4125 22.6125 8.25H1.3875Z" fill="#F9F9F9"/>
<path d="M11.4751 9.41289C11.5876 9.33789 11.6626 9.41289 11.7376 9.48789C11.7751 9.56289 11.7751 9.78789 11.7001 10.0504C11.6626 10.2004 11.5501 10.3504 11.4751 10.4629C11.6251 10.4629 11.8126 10.4254 12.0001 10.3504C12.1876 10.4254 12.3376 10.4629 12.5251 10.4629C12.4501 10.3129 12.3751 10.0129 12.4126 9.78789C12.4126 9.45039 12.3751 9.33789 12.3001 9.26289C12.2251 9.18789 12.0376 9.15039 11.9251 9.15039C11.8501 9.15039 11.8501 9.18789 11.8501 9.18789C11.7001 9.15039 11.5876 9.15039 11.5126 9.18789C11.4376 9.26289 11.4376 9.45039 11.4751 9.41289Z" fill="white"/>
<path d="M13.9875 10.5377C13.9125 10.1252 13.5 10.2377 13.1625 10.4252C13.0125 10.5002 12.8625 10.5752 12.7125 10.5752H12.6C12.4125 10.5752 12.1875 10.5377 12 10.4627C11.8125 10.5377 11.5875 10.5752 11.4 10.5752H11.325C11.1375 10.5752 10.9875 10.5002 10.8375 10.3877C10.5375 10.2377 10.125 10.1252 10.0125 10.5002C10.0875 10.4627 10.1625 10.3877 10.2 10.3877L10.05 13.9877L10.125 13.9127L10.275 10.4252C10.3125 10.4627 10.4625 10.6127 10.5 10.6127L10.3875 13.6502L10.5 13.5377L10.6125 10.6502C10.65 10.6877 10.7625 10.7627 10.8 10.8002L10.6875 13.3127L10.9875 13.0502L11.2875 12.0377C11.025 11.4752 11.0625 10.9877 11.0625 10.9877H11.1375C11.325 10.9877 11.7375 10.8752 11.925 10.7627C11.9625 10.7627 11.9625 10.7252 12 10.7252C12 10.7627 12.0375 10.7627 12.075 10.8002C12.2625 10.9127 12.675 11.0252 12.8625 11.0252H12.9375C12.9375 11.0252 12.975 11.5127 12.7125 12.0752L12.975 13.0502L13.275 13.3127L13.1625 10.8377C13.2 10.8002 13.275 10.7252 13.35 10.6877L13.4625 13.5002L13.575 13.6127L13.4625 10.6127C13.5 10.5752 13.65 10.4627 13.6875 10.4252L13.8375 13.8752L13.9125 13.9502L13.7625 10.3877C13.8 10.4252 13.9125 10.5002 13.9875 10.5377Z" fill="white"/>
<path d="M11.6624 11.1376V12.6001C11.6624 12.6001 11.6624 12.6376 11.6999 12.6376C11.7374 12.7126 11.8124 12.7501 11.8499 12.8251L11.9624 12.9376L12.0749 12.8251L12.2624 12.6376V11.2126C12.1499 11.1751 12.0374 11.1376 11.9624 11.0626C11.9249 11.0251 11.8124 11.0626 11.6624 11.1376Z" fill="white"/>
<path d="M13.6125 14.2129C13.6125 14.0254 13.425 14.0254 13.275 14.0629C13.2375 14.0629 13.2375 14.0629 13.2 14.1004L12.975 13.2754L14.2125 14.4754L14.0625 10.5754C14.025 9.97539 13.5375 10.1254 13.2 10.3504C13.0125 10.4629 12.8625 10.5379 12.675 10.5379C12.4125 10.0879 12.5625 9.48789 12.375 9.33789C12.3 9.26289 12.0375 9.15039 11.85 9.15039C11.7375 9.15039 11.775 9.22539 11.775 9.22539C11.5875 9.18789 11.4375 9.18789 11.3625 9.26289C11.2875 9.30039 11.3625 9.67539 11.4 9.60039C11.5125 9.48789 11.55 9.52539 11.625 9.63789C11.7 9.75039 11.55 10.2004 11.3625 10.5379C11.1375 10.5379 10.95 10.4629 10.7625 10.3504C10.3875 10.1254 9.9 10.0129 9.9 10.5754L9.75 14.4379L10.9875 13.2754L10.7625 14.0629C10.725 14.0629 10.725 14.0629 10.6875 14.0254C10.5375 13.9879 10.35 13.9879 10.35 14.1754C10.125 14.1379 10.05 14.4754 10.275 14.5504C10.275 14.6629 10.275 14.7379 10.425 14.7379C10.7625 14.8504 11.3625 14.8879 11.9625 14.8879C12.5625 14.8879 13.1625 14.8504 13.5 14.7379C13.65 14.7004 13.65 14.6254 13.65 14.5504C13.95 14.4754 13.8375 14.1379 13.6125 14.2129ZM11.7 12.6004C11.7 12.5629 11.7 12.5629 11.7 12.6004L11.6625 12.5629V11.1379C11.8125 11.1004 11.925 11.0629 12 10.9879C12.075 11.0629 12.1875 11.1004 12.3 11.1379V12.5629C12.225 12.6379 12.1875 12.7129 12.1125 12.7504L12 12.8629L11.8875 12.7504C11.8125 12.7129 11.775 12.6379 11.7 12.6004ZM11.7 10.0879C11.775 9.82539 11.775 9.60039 11.7375 9.52539C11.6625 9.45039 11.5875 9.37539 11.475 9.45039C11.4375 9.48789 11.4375 9.30039 11.5125 9.26289C11.5875 9.22539 11.7 9.22539 11.85 9.26289C11.85 9.26289 11.85 9.18789 11.925 9.22539C12.0375 9.22539 12.2625 9.30039 12.3 9.33789C12.3375 9.37539 12.4125 9.52539 12.4125 9.86289C12.4125 10.0879 12.45 10.3879 12.525 10.5379C12.375 10.5379 12.1875 10.5004 12 10.4254C11.8125 10.5004 11.6625 10.5379 11.475 10.5379C11.55 10.3879 11.6625 10.2379 11.7 10.0879ZM10.725 13.4254L10.8375 10.9129C10.8 10.8754 10.725 10.8004 10.65 10.7629L10.5 13.6129L10.3875 13.7254L10.5 10.6879C10.4625 10.6504 10.3125 10.5379 10.275 10.5004L10.125 13.9879L10.05 14.0629L10.2 10.4629C10.1625 10.4629 10.05 10.5004 10.0125 10.5754C10.125 10.2004 10.5375 10.3129 10.8375 10.5004C10.9875 10.6129 11.175 10.6504 11.325 10.6879H11.4C11.5875 10.6879 11.775 10.6504 12 10.5754C12.225 10.6504 12.4125 10.6879 12.6 10.6879H12.7125C12.8625 10.6504 13.0125 10.6129 13.1625 10.5379C13.5 10.3504 13.9125 10.2379 13.9875 10.6504C13.9125 10.6129 13.8 10.5379 13.7625 10.5379L13.9125 14.1004L13.8375 14.0254L13.6875 10.5004C13.65 10.5379 13.5 10.6879 13.4625 10.6879L13.575 13.6879L13.4625 13.5754L13.35 10.7629C13.3125 10.8004 13.2 10.8754 13.1625 10.9129L13.275 13.3879L12.975 13.1254L12.7125 12.1504C12.975 11.5879 12.9375 11.1004 12.9375 11.1004H12.8625C12.675 11.1004 12.2625 11.0254 12.075 10.8754C12.0375 10.8754 12.0375 10.8379 12 10.8004C12 10.8004 11.9625 10.8379 11.925 10.8379C11.7375 10.9504 11.325 11.0629 11.1375 11.0629H11.0625C11.0625 11.0629 11.025 11.5504 11.2875 12.1129L10.9875 13.1254L10.725 13.4254ZM12 14.1754H11.5875L11.85 12.9004C11.8875 12.9379 11.925 12.9754 12 13.0129C12.0375 12.9754 12.1125 12.9379 12.15 12.9004L12.45 14.1754H12Z" fill="#C09300"/>
</g>
<defs>
<clipPath id="clip0_1577_19148">
<rect width="24" height="24" fill="white"/>
</clipPath>
</defs>
</svg>
